<svg xmlns="http://www.w3.org/2000/svg" role="img" viewBox="0 0 38 24" width="38" height="24" aria-labelledby="pi-upi"><title id="pi-upi">UPI</title><path d="m35 1c1.1 0 2 .9 2 2v18c0 1.1-.9 2-2 2h-32c-1.1 0-2-.9-2-2v-18c0-1.1.9-2 2-2z" fill="#fff"/><path d="m30.2971 17.16 4.535-5.226-2.148-5.40702z" fill="#097939"/><path d="m28.77 17.16 4.535-5.226-2.149-5.40702z" fill="#ed752e"/><path d="m7.09794 6.59004-1.91 8.58996 6.77696.058 1.863-8.64796h1.719l-2.235 10.05496c-.085.382-.41.695-.726.695h-8.68796c-.527 0-.84-.52-.695-1.16l2.129-9.58996zm20.95696-.063h1.718l-2.386 10.81296h-1.77zm-12.317 4.50396 8.594-.058.57-2.28196h-8.734l.523-2.105 9.313-.106c.578-.007.922.56.77 1.266l-.876 4.04996c-.156.708-.75 1.278-1.328 1.278h-7.687l-.906 4.446h-1.672z" fill="#747474"/></svg>
