<svg xmlns="http://www.w3.org/2000/svg" width="30" height="20" fill="none"><path fill="#fff" d="M0 0h30v20h-30z"/><path fill="#002991" d="M19.303 6.427c0 1.67-1.545 3.643-3.877 3.643h-2.247l-.108.695-.525 3.352h-2.798l1.682-10.793h4.528c1.523 0 2.726.85 3.165 2.03q.19.504.18 1.073"/><path fill="#60cdff" d="M20.912 9.53a3.87 3.87 0 0 1-3.823 3.24h-1.563l-.651 4.05h-2.78l.447-2.7.526-3.351.108-.695h2.246c2.333 0 3.877-1.973 3.877-3.643 1.149.59 1.815 1.789 1.61 3.103Z"/><path d="M19.303 6.427q0-.043 0 0"/><path fill="#008cff" d="M19.303 6.427a3.66 3.66 0 0 0-1.7-.403h-3.79l-.634 4.05h2.247c2.332 0 3.877-1.973 3.877-3.643Z"/></svg>