<svg width="105" height="19" viewBox="0 0 105 19" fill="none" xmlns="http://www.w3.org/2000/svg">
<g clip-path="url(#clip0_53_941)">
<path d="M0 14.806V0.286H3.63L10.582 11.088H10.78L10.604 0.286H13.31V14.806H10.01L2.75 3.586H2.53L2.706 14.806H0ZM20.5744 15.092C19.6504 15.092 18.8217 14.96 18.0884 14.696C17.3697 14.432 16.761 14.0507 16.2624 13.552C15.7637 13.0387 15.3824 12.4227 15.1184 11.704C14.8544 10.9853 14.7224 10.1713 14.7224 9.262C14.7224 8.35267 14.847 7.51667 15.0964 6.754C15.3604 5.99133 15.7344 5.33133 16.2184 4.774C16.7024 4.21667 17.289 3.784 17.9784 3.476C18.6824 3.168 19.4817 3.014 20.3764 3.014C21.2124 3.014 21.9604 3.15333 22.6204 3.432C23.2804 3.71067 23.8377 4.12867 24.2924 4.686C24.747 5.22867 25.0844 5.91067 25.3044 6.732C25.5244 7.53867 25.5977 8.47733 25.5244 9.548L16.5264 9.614V8.008L23.9184 7.942L22.9504 8.844C23.0384 8.008 22.9724 7.326 22.7524 6.798C22.5324 6.25533 22.217 5.85933 21.8064 5.61C21.3957 5.346 20.9264 5.214 20.3984 5.214C19.797 5.214 19.269 5.37533 18.8144 5.698C18.3597 6.006 18.0077 6.46067 17.7584 7.062C17.5237 7.64867 17.4064 8.36733 17.4064 9.218C17.4064 10.494 17.685 11.4473 18.2424 12.078C18.8144 12.7087 19.5917 13.024 20.5744 13.024C21.0144 13.024 21.381 12.9727 21.6744 12.87C21.9824 12.7527 22.239 12.606 22.4444 12.43C22.6497 12.2393 22.811 12.0267 22.9284 11.792C23.0604 11.5573 23.163 11.308 23.2364 11.044L25.6564 11.594C25.539 12.1367 25.3484 12.6207 25.0844 13.046C24.8204 13.4713 24.4757 13.838 24.0504 14.146C23.6397 14.454 23.1484 14.6887 22.5764 14.85C22.0044 15.0113 21.337 15.092 20.5744 15.092ZM31.4531 15.092C30.6757 15.092 29.9717 15.0113 29.3411 14.85C28.7251 14.7033 28.1971 14.4907 27.7571 14.212C27.3171 13.9187 26.9651 13.574 26.7011 13.178C26.4371 12.7673 26.2757 12.3127 26.2171 11.814L28.3951 11C28.4244 11.3813 28.5711 11.726 28.8351 12.034C29.0991 12.3273 29.4657 12.562 29.9351 12.738C30.4044 12.914 30.9691 13.002 31.6291 13.002C32.3624 13.002 32.9271 12.892 33.3231 12.672C33.7337 12.4373 33.9391 12.1073 33.9391 11.682C33.9391 11.374 33.8291 11.132 33.6091 10.956C33.3891 10.7653 33.0664 10.6113 32.6411 10.494C32.2304 10.362 31.7317 10.2373 31.1451 10.12C30.6024 10.0027 30.0524 9.87067 29.4951 9.724C28.9524 9.56267 28.4464 9.35733 27.9771 9.108C27.5224 8.844 27.1484 8.50667 26.8551 8.096C26.5764 7.67067 26.4371 7.13533 26.4371 6.49C26.4371 5.786 26.6204 5.17733 26.9871 4.664C27.3684 4.15067 27.9111 3.74733 28.6151 3.454C29.3337 3.16067 30.1991 3.014 31.2111 3.014C32.1644 3.014 32.9857 3.146 33.6751 3.41C34.3791 3.674 34.9511 4.05533 35.3911 4.554C35.8311 5.038 36.1097 5.61733 36.2271 6.292L33.9391 7.018C33.8951 6.60733 33.7557 6.26267 33.5211 5.984C33.2864 5.69067 32.9711 5.47067 32.5751 5.324C32.1791 5.17733 31.7171 5.104 31.1891 5.104C30.5144 5.104 29.9864 5.22133 29.6051 5.456C29.2237 5.69067 29.0331 6.006 29.0331 6.402C29.0331 6.72467 29.1504 6.98133 29.3851 7.172C29.6344 7.36267 29.9717 7.51667 30.3971 7.634C30.8371 7.75133 31.3357 7.86867 31.8931 7.986C32.4797 8.10333 33.0444 8.24267 33.5871 8.404C34.1444 8.55067 34.6431 8.74867 35.0831 8.998C35.5231 9.24733 35.8751 9.57733 36.1391 9.988C36.4031 10.384 36.5351 10.8973 36.5351 11.528C36.5351 12.2907 36.3297 12.9433 35.9191 13.486C35.5084 14.014 34.9217 14.4173 34.1591 14.696C33.4111 14.96 32.5091 15.092 31.4531 15.092ZM41.6724 15.07C40.4551 15.07 39.5604 14.7473 38.9884 14.102C38.4164 13.442 38.1304 12.4227 38.1304 11.044V5.522H36.4364L36.4804 3.322H37.6024C38.0278 3.322 38.3431 3.256 38.5484 3.124C38.7538 2.992 38.8784 2.75733 38.9224 2.42L39.1864 0.747999H40.7924V3.3H43.8284V5.61H40.7924V10.934C40.7924 11.4767 40.9171 11.8727 41.1664 12.122C41.4304 12.3713 41.8191 12.496 42.3324 12.496C42.6111 12.496 42.8824 12.4667 43.1464 12.408C43.4251 12.3347 43.6818 12.2173 43.9164 12.056V14.696C43.4618 14.8427 43.0438 14.938 42.6624 14.982C42.2958 15.0407 41.9658 15.07 41.6724 15.07ZM62.0634 18.04C61.0514 18.2307 60.1861 18.348 59.4674 18.392C58.7487 18.4507 58.1107 18.4507 57.5534 18.392C56.9961 18.348 56.4461 18.2747 55.9034 18.172C55.3607 18.0693 54.7667 17.9667 54.1214 17.864C53.4907 17.7613 52.7501 17.6807 51.8994 17.622C51.0487 17.578 50.0074 17.578 48.7754 17.622V15.29C49.2447 15.3047 49.7581 15.3047 50.3154 15.29C50.8727 15.29 51.4521 15.2607 52.0534 15.202C52.6547 15.158 53.2487 15.092 53.8354 15.004C54.4367 14.916 54.9941 14.7987 55.5074 14.652C56.0354 14.4907 56.4974 14.3073 56.8934 14.102V13.794C55.7934 14.1167 54.8034 14.2633 53.9234 14.234C53.0581 14.19 52.2954 13.9993 51.6354 13.662C50.9754 13.3247 50.4254 12.8627 49.9854 12.276C49.5454 11.6747 49.2081 10.9707 48.9734 10.164C48.7534 9.34267 48.6434 8.45533 48.6434 7.502C48.6434 6.41667 48.7901 5.41933 49.0834 4.51C49.3767 3.586 49.8094 2.794 50.3814 2.134C50.9534 1.45933 51.6574 0.938667 52.4934 0.572C53.3441 0.190667 54.3267 0 55.4414 0C56.8347 0 58.0301 0.300667 59.0274 0.902C60.0394 1.48867 60.8167 2.34667 61.3594 3.476C61.9021 4.59067 62.1734 5.94 62.1734 7.524C62.1734 8.82933 61.9974 9.944 61.6454 10.868C61.2934 11.7773 60.7874 12.5473 60.1274 13.178C59.4674 13.794 58.6607 14.2927 57.7074 14.674C56.7541 15.0553 55.6834 15.3633 54.4954 15.598V15.862C55.2581 15.95 55.9474 16.0233 56.5634 16.082C57.1794 16.1407 57.7734 16.17 58.3454 16.17C58.9321 16.17 59.5187 16.1333 60.1054 16.06C60.7067 16.0013 61.3594 15.8913 62.0634 15.73V18.04ZM55.4634 12.848C56.3287 12.848 57.0474 12.65 57.6194 12.254C58.2061 11.858 58.6387 11.2787 58.9174 10.516C59.2107 9.73867 59.3574 8.78533 59.3574 7.656C59.3574 6.48267 59.2034 5.50733 58.8954 4.73C58.6021 3.938 58.1547 3.33667 57.5534 2.926C56.9667 2.51533 56.2407 2.31 55.3754 2.31C54.5247 2.31 53.8061 2.51533 53.2194 2.926C52.6474 3.322 52.2147 3.916 51.9214 4.708C51.6281 5.48533 51.4814 6.446 51.4814 7.59C51.4814 8.74867 51.6354 9.71667 51.9434 10.494C52.2514 11.2713 52.6987 11.858 53.2854 12.254C53.8867 12.65 54.6127 12.848 55.4634 12.848ZM67.5653 15.092C66.2453 15.092 65.248 14.6447 64.5733 13.75C63.9133 12.8407 63.5833 11.4693 63.5833 9.636V3.3H66.3773V9.328C66.3773 10.4867 66.5533 11.352 66.9053 11.924C67.2573 12.496 67.8 12.782 68.5333 12.782C68.9586 12.782 69.3326 12.6793 69.6553 12.474C69.978 12.254 70.2566 11.9533 70.4913 11.572C70.726 11.176 70.9093 10.7213 71.0413 10.208C71.188 9.69467 71.276 9.13 71.3053 8.514V3.3H74.0773V10.076V14.806H71.7893L71.8333 11.176H71.4373C71.2466 12.1 70.9753 12.848 70.6233 13.42C70.286 13.992 69.868 14.4173 69.3693 14.696C68.8706 14.96 68.2693 15.092 67.5653 15.092ZM81.2005 15.092C80.2765 15.092 79.4479 14.96 78.7145 14.696C77.9959 14.432 77.3872 14.0507 76.8885 13.552C76.3899 13.0387 76.0085 12.4227 75.7445 11.704C75.4805 10.9853 75.3485 10.1713 75.3485 9.262C75.3485 8.35267 75.4732 7.51667 75.7225 6.754C75.9865 5.99133 76.3605 5.33133 76.8445 4.774C77.3285 4.21667 77.9152 3.784 78.6045 3.476C79.3085 3.168 80.1079 3.014 81.0025 3.014C81.8385 3.014 82.5865 3.15333 83.2465 3.432C83.9065 3.71067 84.4639 4.12867 84.9185 4.686C85.3732 5.22867 85.7105 5.91067 85.9305 6.732C86.1505 7.53867 86.2239 8.47733 86.1505 9.548L77.1525 9.614V8.008L84.5445 7.942L83.5765 8.844C83.6645 8.008 83.5985 7.326 83.3785 6.798C83.1585 6.25533 82.8432 5.85933 82.4325 5.61C82.0219 5.346 81.5525 5.214 81.0245 5.214C80.4232 5.214 79.8952 5.37533 79.4405 5.698C78.9859 6.006 78.6339 6.46067 78.3845 7.062C78.1499 7.64867 78.0325 8.36733 78.0325 9.218C78.0325 10.494 78.3112 11.4473 78.8685 12.078C79.4405 12.7087 80.2179 13.024 81.2005 13.024C81.6405 13.024 82.0072 12.9727 82.3005 12.87C82.6085 12.7527 82.8652 12.606 83.0705 12.43C83.2759 12.2393 83.4372 12.0267 83.5545 11.792C83.6865 11.5573 83.7892 11.308 83.8625 11.044L86.2825 11.594C86.1652 12.1367 85.9745 12.6207 85.7105 13.046C85.4465 13.4713 85.1019 13.838 84.6765 14.146C84.2659 14.454 83.7745 14.6887 83.2025 14.85C82.6305 15.0113 81.9632 15.092 81.2005 15.092ZM92.0792 15.092C91.3019 15.092 90.5979 15.0113 89.9672 14.85C89.3512 14.7033 88.8232 14.4907 88.3832 14.212C87.9432 13.9187 87.5912 13.574 87.3272 13.178C87.0632 12.7673 86.9019 12.3127 86.8432 11.814L89.0212 11C89.0506 11.3813 89.1972 11.726 89.4612 12.034C89.7252 12.3273 90.0919 12.562 90.5612 12.738C91.0306 12.914 91.5952 13.002 92.2552 13.002C92.9886 13.002 93.5532 12.892 93.9492 12.672C94.3599 12.4373 94.5652 12.1073 94.5652 11.682C94.5652 11.374 94.4552 11.132 94.2352 10.956C94.0152 10.7653 93.6926 10.6113 93.2672 10.494C92.8566 10.362 92.3579 10.2373 91.7712 10.12C91.2286 10.0027 90.6786 9.87067 90.1212 9.724C89.5786 9.56267 89.0726 9.35733 88.6032 9.108C88.1486 8.844 87.7746 8.50667 87.4812 8.096C87.2026 7.67067 87.0632 7.13533 87.0632 6.49C87.0632 5.786 87.2466 5.17733 87.6132 4.664C87.9946 4.15067 88.5372 3.74733 89.2412 3.454C89.9599 3.16067 90.8252 3.014 91.8372 3.014C92.7906 3.014 93.6119 3.146 94.3012 3.41C95.0052 3.674 95.5772 4.05533 96.0172 4.554C96.4572 5.038 96.7359 5.61733 96.8532 6.292L94.5652 7.018C94.5212 6.60733 94.3819 6.26267 94.1472 5.984C93.9126 5.69067 93.5972 5.47067 93.2012 5.324C92.8052 5.17733 92.3432 5.104 91.8152 5.104C91.1406 5.104 90.6126 5.22133 90.2312 5.456C89.8499 5.69067 89.6592 6.006 89.6592 6.402C89.6592 6.72467 89.7766 6.98133 90.0112 7.172C90.2606 7.36267 90.5979 7.51667 91.0232 7.634C91.4632 7.75133 91.9619 7.86867 92.5192 7.986C93.1059 8.10333 93.6706 8.24267 94.2132 8.404C94.7706 8.55067 95.2692 8.74867 95.7092 8.998C96.1492 9.24733 96.5012 9.57733 96.7652 9.988C97.0292 10.384 97.1612 10.8973 97.1612 11.528C97.1612 12.2907 96.9559 12.9433 96.5452 13.486C96.1346 14.014 95.5479 14.4173 94.7852 14.696C94.0372 14.96 93.1352 15.092 92.0792 15.092ZM102.298 15.07C101.081 15.07 100.186 14.7473 99.6146 14.102C99.0426 13.442 98.7566 12.4227 98.7566 11.044V5.522H97.0626L97.1066 3.322H98.2286C98.6539 3.322 98.9693 3.256 99.1746 3.124C99.3799 2.992 99.5046 2.75733 99.5486 2.42L99.8126 0.747999H101.418V3.3H104.454V5.61H101.418V10.934C101.418 11.4767 101.543 11.8727 101.792 12.122C102.056 12.3713 102.445 12.496 102.958 12.496C103.237 12.496 103.508 12.4667 103.772 12.408C104.051 12.3347 104.308 12.2173 104.542 12.056V14.696C104.088 14.8427 103.67 14.938 103.288 14.982C102.922 15.0407 102.592 15.07 102.298 15.07Z" fill="black"/>
</g>
<defs>
<clipPath id="clip0_53_941">
<rect width="105" height="19" fill="white"/>
</clipPath>
</defs>
</svg>
