<svg width="105" height="19" viewBox="0 0 105 19" fill="none" xmlns="http://www.w3.org/2000/svg">
<path d="M-6.44177e-05 14.806V0.285999H3.62994L10.5819 11.088H10.7799L10.6039 0.285999H13.3099V14.806H10.0099L2.74994 3.586H2.52994L2.70594 14.806H-6.44177e-05ZM20.5743 15.092C19.6503 15.092 18.8216 14.96 18.0883 14.696C17.3696 14.432 16.7609 14.0507 16.2623 13.552C15.7636 13.0387 15.3823 12.4227 15.1183 11.704C14.8543 10.9853 14.7223 10.1713 14.7223 9.262C14.7223 8.35267 14.8469 7.51667 15.0963 6.754C15.3603 5.99133 15.7343 5.33133 16.2183 4.774C16.7023 4.21667 17.2889 3.784 17.9783 3.476C18.6823 3.168 19.4816 3.014 20.3763 3.014C21.2123 3.014 21.9603 3.15333 22.6203 3.432C23.2803 3.71067 23.8376 4.12867 24.2923 4.686C24.7469 5.22867 25.0843 5.91067 25.3043 6.732C25.5243 7.53867 25.5976 8.47733 25.5243 9.548L16.5263 9.614V8.008L23.9183 7.942L22.9503 8.844C23.0383 8.008 22.9723 7.326 22.7523 6.798C22.5323 6.25533 22.2169 5.85933 21.8063 5.61C21.3956 5.346 20.9263 5.214 20.3983 5.214C19.7969 5.214 19.2689 5.37533 18.8143 5.698C18.3596 6.006 18.0076 6.46067 17.7583 7.062C17.5236 7.64867 17.4063 8.36733 17.4063 9.218C17.4063 10.494 17.6849 11.4473 18.2423 12.078C18.8143 12.7087 19.5916 13.024 20.5743 13.024C21.0143 13.024 21.3809 12.9727 21.6743 12.87C21.9823 12.7527 22.2389 12.606 22.4443 12.43C22.6496 12.2393 22.8109 12.0267 22.9283 11.792C23.0603 11.5573 23.1629 11.308 23.2363 11.044L25.6563 11.594C25.5389 12.1367 25.3483 12.6207 25.0843 13.046C24.8203 13.4713 24.4756 13.838 24.0503 14.146C23.6396 14.454 23.1483 14.6887 22.5763 14.85C22.0043 15.0113 21.3369 15.092 20.5743 15.092ZM31.453 15.092C30.6756 15.092 29.9716 15.0113 29.341 14.85C28.725 14.7033 28.197 14.4907 27.757 14.212C27.317 13.9187 26.965 13.574 26.701 13.178C26.437 12.7673 26.2756 12.3127 26.217 11.814L28.395 11C28.4243 11.3813 28.571 11.726 28.835 12.034C29.099 12.3273 29.4656 12.562 29.935 12.738C30.4043 12.914 30.969 13.002 31.629 13.002C32.3623 13.002 32.927 12.892 33.323 12.672C33.7336 12.4373 33.939 12.1073 33.939 11.682C33.939 11.374 33.829 11.132 33.609 10.956C33.389 10.7653 33.0663 10.6113 32.641 10.494C32.2303 10.362 31.7316 10.2373 31.145 10.12C30.6023 10.0027 30.0523 9.87067 29.495 9.724C28.9523 9.56267 28.4463 9.35733 27.977 9.108C27.5223 8.844 27.1483 8.50667 26.855 8.096C26.5763 7.67067 26.437 7.13533 26.437 6.49C26.437 5.786 26.6203 5.17733 26.987 4.664C27.3683 4.15067 27.911 3.74733 28.615 3.454C29.3336 3.16067 30.199 3.014 31.211 3.014C32.1643 3.014 32.9856 3.146 33.675 3.41C34.379 3.674 34.951 4.05533 35.391 4.554C35.831 5.038 36.1096 5.61733 36.227 6.292L33.939 7.018C33.895 6.60733 33.7556 6.26267 33.521 5.984C33.2863 5.69067 32.971 5.47067 32.575 5.324C32.179 5.17733 31.717 5.104 31.189 5.104C30.5143 5.104 29.9863 5.22133 29.605 5.456C29.2236 5.69067 29.033 6.006 29.033 6.402C29.033 6.72467 29.1503 6.98133 29.385 7.172C29.6343 7.36267 29.9716 7.51667 30.397 7.634C30.837 7.75133 31.3356 7.86867 31.893 7.986C32.4796 8.10333 33.0443 8.24267 33.587 8.404C34.1443 8.55067 34.643 8.74867 35.083 8.998C35.523 9.24733 35.875 9.57733 36.139 9.988C36.403 10.384 36.535 10.8973 36.535 11.528C36.535 12.2907 36.3296 12.9433 35.919 13.486C35.5083 14.014 34.9216 14.4173 34.159 14.696C33.411 14.96 32.509 15.092 31.453 15.092ZM41.6723 15.07C40.455 15.07 39.5603 14.7473 38.9883 14.102C38.4163 13.442 38.1303 12.4227 38.1303 11.044V5.522H36.4363L36.4803 3.322H37.6023C38.0277 3.322 38.343 3.256 38.5483 3.124C38.7537 2.992 38.8783 2.75733 38.9223 2.42L39.1863 0.747998H40.7923V3.3H43.8283V5.61H40.7923V10.934C40.7923 11.4767 40.917 11.8727 41.1663 12.122C41.4303 12.3713 41.819 12.496 42.3323 12.496C42.611 12.496 42.8823 12.4667 43.1463 12.408C43.425 12.3347 43.6817 12.2173 43.9163 12.056V14.696C43.4617 14.8427 43.0437 14.938 42.6623 14.982C42.2957 15.0407 41.9657 15.07 41.6723 15.07ZM62.0633 18.04C61.0513 18.2307 60.186 18.348 59.4673 18.392C58.7486 18.4507 58.1106 18.4507 57.5533 18.392C56.996 18.348 56.446 18.2747 55.9033 18.172C55.3606 18.0693 54.7666 17.9667 54.1213 17.864C53.4906 17.7613 52.75 17.6807 51.8993 17.622C51.0486 17.578 50.0073 17.578 48.7753 17.622V15.29C49.2446 15.3047 49.758 15.3047 50.3153 15.29C50.8726 15.29 51.452 15.2607 52.0533 15.202C52.6546 15.158 53.2486 15.092 53.8353 15.004C54.4366 14.916 54.994 14.7987 55.5073 14.652C56.0353 14.4907 56.4973 14.3073 56.8933 14.102V13.794C55.7933 14.1167 54.8033 14.2633 53.9233 14.234C53.058 14.19 52.2953 13.9993 51.6353 13.662C50.9753 13.3247 50.4253 12.8627 49.9853 12.276C49.5453 11.6747 49.208 10.9707 48.9733 10.164C48.7533 9.34267 48.6433 8.45533 48.6433 7.502C48.6433 6.41667 48.79 5.41933 49.0833 4.51C49.3766 3.586 49.8093 2.794 50.3813 2.134C50.9533 1.45933 51.6573 0.938666 52.4933 0.571999C53.344 0.190666 54.3266 -1.07288e-06 55.4413 -1.07288e-06C56.8346 -1.07288e-06 58.03 0.300666 59.0273 0.901999C60.0393 1.48867 60.8166 2.34667 61.3593 3.476C61.902 4.59067 62.1733 5.94 62.1733 7.524C62.1733 8.82933 61.9973 9.944 61.6453 10.868C61.2933 11.7773 60.7873 12.5473 60.1273 13.178C59.4673 13.794 58.6606 14.2927 57.7073 14.674C56.754 15.0553 55.6833 15.3633 54.4953 15.598V15.862C55.258 15.95 55.9473 16.0233 56.5633 16.082C57.1793 16.1407 57.7733 16.17 58.3453 16.17C58.932 16.17 59.5186 16.1333 60.1053 16.06C60.7066 16.0013 61.3593 15.8913 62.0633 15.73V18.04ZM55.4633 12.848C56.3286 12.848 57.0473 12.65 57.6193 12.254C58.206 11.858 58.6386 11.2787 58.9173 10.516C59.2106 9.73867 59.3573 8.78533 59.3573 7.656C59.3573 6.48267 59.2033 5.50733 58.8953 4.73C58.602 3.938 58.1546 3.33667 57.5533 2.926C56.9666 2.51533 56.2406 2.31 55.3753 2.31C54.5246 2.31 53.806 2.51533 53.2193 2.926C52.6473 3.322 52.2146 3.916 51.9213 4.708C51.628 5.48533 51.4813 6.446 51.4813 7.59C51.4813 8.74867 51.6353 9.71667 51.9433 10.494C52.2513 11.2713 52.6986 11.858 53.2853 12.254C53.8866 12.65 54.6126 12.848 55.4633 12.848ZM67.5652 15.092C66.2452 15.092 65.2479 14.6447 64.5732 13.75C63.9132 12.8407 63.5832 11.4693 63.5832 9.636V3.3H66.3772V9.328C66.3772 10.4867 66.5532 11.352 66.9052 11.924C67.2572 12.496 67.7999 12.782 68.5332 12.782C68.9585 12.782 69.3325 12.6793 69.6552 12.474C69.9779 12.254 70.2565 11.9533 70.4912 11.572C70.7259 11.176 70.9092 10.7213 71.0412 10.208C71.1879 9.69467 71.2759 9.13 71.3052 8.514V3.3H74.0772V10.076V14.806H71.7892L71.8332 11.176H71.4372C71.2465 12.1 70.9752 12.848 70.6232 13.42C70.2859 13.992 69.8679 14.4173 69.3692 14.696C68.8705 14.96 68.2692 15.092 67.5652 15.092ZM81.2004 15.092C80.2764 15.092 79.4478 14.96 78.7144 14.696C77.9958 14.432 77.3871 14.0507 76.8884 13.552C76.3898 13.0387 76.0084 12.4227 75.7444 11.704C75.4804 10.9853 75.3484 10.1713 75.3484 9.262C75.3484 8.35267 75.4731 7.51667 75.7224 6.754C75.9864 5.99133 76.3604 5.33133 76.8444 4.774C77.3284 4.21667 77.9151 3.784 78.6044 3.476C79.3084 3.168 80.1078 3.014 81.0024 3.014C81.8384 3.014 82.5864 3.15333 83.2464 3.432C83.9064 3.71067 84.4638 4.12867 84.9184 4.686C85.3731 5.22867 85.7104 5.91067 85.9304 6.732C86.1504 7.53867 86.2238 8.47733 86.1504 9.548L77.1524 9.614V8.008L84.5444 7.942L83.5764 8.844C83.6644 8.008 83.5984 7.326 83.3784 6.798C83.1584 6.25533 82.8431 5.85933 82.4324 5.61C82.0218 5.346 81.5524 5.214 81.0244 5.214C80.4231 5.214 79.8951 5.37533 79.4404 5.698C78.9858 6.006 78.6338 6.46067 78.3844 7.062C78.1498 7.64867 78.0324 8.36733 78.0324 9.218C78.0324 10.494 78.3111 11.4473 78.8684 12.078C79.4404 12.7087 80.2178 13.024 81.2004 13.024C81.6404 13.024 82.0071 12.9727 82.3004 12.87C82.6084 12.7527 82.8651 12.606 83.0704 12.43C83.2758 12.2393 83.4371 12.0267 83.5544 11.792C83.6864 11.5573 83.7891 11.308 83.8624 11.044L86.2824 11.594C86.1651 12.1367 85.9744 12.6207 85.7104 13.046C85.4464 13.4713 85.1018 13.838 84.6764 14.146C84.2658 14.454 83.7744 14.6887 83.2024 14.85C82.6304 15.0113 81.9631 15.092 81.2004 15.092ZM92.0791 15.092C91.3018 15.092 90.5978 15.0113 89.9671 14.85C89.3511 14.7033 88.8231 14.4907 88.3831 14.212C87.9431 13.9187 87.5911 13.574 87.3271 13.178C87.0631 12.7673 86.9018 12.3127 86.8431 11.814L89.0211 11C89.0505 11.3813 89.1971 11.726 89.4611 12.034C89.7251 12.3273 90.0918 12.562 90.5611 12.738C91.0305 12.914 91.5951 13.002 92.2551 13.002C92.9885 13.002 93.5531 12.892 93.9491 12.672C94.3598 12.4373 94.5651 12.1073 94.5651 11.682C94.5651 11.374 94.4551 11.132 94.2351 10.956C94.0151 10.7653 93.6925 10.6113 93.2671 10.494C92.8565 10.362 92.3578 10.2373 91.7711 10.12C91.2285 10.0027 90.6785 9.87067 90.1211 9.724C89.5785 9.56267 89.0725 9.35733 88.6031 9.108C88.1485 8.844 87.7745 8.50667 87.4811 8.096C87.2025 7.67067 87.0631 7.13533 87.0631 6.49C87.0631 5.786 87.2465 5.17733 87.6131 4.664C87.9945 4.15067 88.5371 3.74733 89.2411 3.454C89.9598 3.16067 90.8251 3.014 91.8371 3.014C92.7905 3.014 93.6118 3.146 94.3011 3.41C95.0051 3.674 95.5771 4.05533 96.0171 4.554C96.4571 5.038 96.7358 5.61733 96.8531 6.292L94.5651 7.018C94.5211 6.60733 94.3818 6.26267 94.1471 5.984C93.9125 5.69067 93.5971 5.47067 93.2011 5.324C92.8051 5.17733 92.3431 5.104 91.8151 5.104C91.1405 5.104 90.6125 5.22133 90.2311 5.456C89.8498 5.69067 89.6591 6.006 89.6591 6.402C89.6591 6.72467 89.7765 6.98133 90.0111 7.172C90.2605 7.36267 90.5978 7.51667 91.0231 7.634C91.4631 7.75133 91.9618 7.86867 92.5191 7.986C93.1058 8.10333 93.6705 8.24267 94.2131 8.404C94.7705 8.55067 95.2691 8.74867 95.7091 8.998C96.1491 9.24733 96.5011 9.57733 96.7651 9.988C97.0291 10.384 97.1611 10.8973 97.1611 11.528C97.1611 12.2907 96.9558 12.9433 96.5451 13.486C96.1345 14.014 95.5478 14.4173 94.7851 14.696C94.0371 14.96 93.1351 15.092 92.0791 15.092ZM102.298 15.07C101.081 15.07 100.186 14.7473 99.6145 14.102C99.0425 13.442 98.7565 12.4227 98.7565 11.044V5.522H97.0625L97.1065 3.322H98.2285C98.6538 3.322 98.9692 3.256 99.1745 3.124C99.3798 2.992 99.5045 2.75733 99.5485 2.42L99.8125 0.747998H101.418V3.3H104.454V5.61H101.418V10.934C101.418 11.4767 101.543 11.8727 101.792 12.122C102.056 12.3713 102.445 12.496 102.958 12.496C103.237 12.496 103.508 12.4667 103.772 12.408C104.051 12.3347 104.308 12.2173 104.542 12.056V14.696C104.088 14.8427 103.67 14.938 103.288 14.982C102.922 15.0407 102.592 15.07 102.298 15.07Z" fill="white"/>
</svg>
