<svg width="37" height="38" viewBox="0 0 37 38" fill="none" xmlns="http://www.w3.org/2000/svg">
<path d="M17.5781 1.0166C21.4839 1.3984 23.7273 1.7931 25.4326 2.50684C27.1039 3.20633 28.3279 4.24245 30.1318 6.11133L30.1328 6.1123L30.5889 6.58398L30.8828 6.88867H31.3076C32.3988 6.88869 33.2297 7.72777 33.8633 8.93164C34.2776 9.7189 34.78 11.0708 34.998 12.3447C35.087 12.8646 35.1262 13.1291 35.1406 13.4473C35.1557 13.7802 35.1446 14.1891 35.1074 14.9883V14.9922L35.0928 15.3389L35.0898 15.4121L35.0967 15.4854C35.2124 16.5881 35.2637 17.9213 35.3311 19.6973L35.4512 22.8486C35.474 23.4485 35.4862 23.7703 35.4824 24.0508C35.4463 26.7282 34.4586 29.5558 32.8037 31.832C31.1486 34.1084 28.8846 35.7575 26.3438 36.2188C26.2055 36.2438 26.0564 36.2667 25.8672 36.293L25.1514 36.3867L24.6182 36.4561C19.9624 37.0557 15.2474 37.0327 10.5977 36.3877C7.84204 36.0054 5.39151 34.2926 3.64062 31.8828C1.88928 29.4723 0.89884 26.4428 1.00781 23.5742L1.15332 19.7598C1.21184 18.2161 1.21223 16.9651 1.23535 15.9453C1.25887 14.908 1.30564 14.0784 1.44629 13.2627L1.46094 13.1787V13.0928C1.46096 11.1472 1.79756 9.7281 1.91602 9.33887C2.17099 8.50108 2.35879 7.60891 2.90723 6.8584C3.27899 6.34982 4.06647 5.66166 5.1582 4.91211C6.22596 4.17903 7.50435 3.4416 8.77441 2.82031C10.1202 2.16213 11.2507 1.68844 12.5654 1.3877C13.877 1.0877 15.4181 0.949853 17.5781 1.0166ZM18.2148 22.915C15.9682 22.9151 14.7094 23.9457 13.541 24.8838C12.8998 25.3986 12.2877 25.8869 11.4951 26.3018C8.97881 27.6189 6.95574 28.0702 5.65527 27.7451C5.02781 27.5882 4.50808 27.3737 4.0752 27.123L1.63965 25.7119L2.63965 28.3438C3.97479 31.8559 6.90594 35.0564 10.709 35.584C15.2874 36.2192 19.9303 36.2419 24.5146 35.6514L24.999 35.5889C25.3297 35.5463 25.6223 35.5058 25.832 35.4756C25.9368 35.4605 26.0216 35.4482 26.0801 35.4395C26.1092 35.4351 26.1319 35.4311 26.1475 35.4287C26.1551 35.4276 26.1609 35.4264 26.165 35.4258C26.1669 35.4255 26.1688 35.426 26.1699 35.4258L26.1719 35.4248L26.1992 35.4209C29.7661 34.7733 32.4955 31.6754 33.7939 28.3477L34.834 25.6826L32.3604 27.1191C31.9264 27.3712 31.4054 27.5876 30.7754 27.7451C29.4749 28.0702 27.451 27.619 24.9346 26.3018C24.142 25.8868 23.5299 25.3986 22.8887 24.8838C21.7203 23.9457 20.4617 22.915 18.2148 22.915ZM21.6318 29.6201C21.9286 29.4394 22.1763 29.4884 22.2715 29.5508C22.2939 29.5656 22.3086 29.5812 22.3164 29.5928C22.323 29.6025 22.3278 29.6124 22.3301 29.627C22.3337 29.6499 22.336 29.726 22.248 29.8594C21.3657 31.1954 19.8022 32.0949 18.1689 32.0254L18.1572 32.0244H18.1445C16.5931 31.997 15.0993 31.2593 14.1064 30.1133C14.0007 29.9911 13.9912 29.9105 13.9922 29.8789C13.9928 29.8593 13.9969 29.8432 14.0049 29.8271C14.0137 29.8094 14.029 29.7877 14.0527 29.7666C14.1515 29.679 14.402 29.5974 14.7188 29.7412C16.6681 30.6264 18.7964 31.0264 20.9541 29.9873L20.959 29.9834C21.1873 29.8761 21.4111 29.7546 21.6318 29.6201ZM8.05859 18.125C5.82643 18.125 4.01665 19.9348 4.0166 22.167C4.0166 24.3992 5.8264 26.209 8.05859 26.209C10.2906 26.2087 12.0996 24.3991 12.0996 22.167C12.0996 19.935 10.2905 18.1253 8.05859 18.125ZM27.9688 18.125C25.7366 18.125 23.9268 19.9348 23.9268 22.167C23.9268 24.3992 25.7366 26.209 27.9688 26.209C30.2009 26.2089 32.0107 24.3992 32.0107 22.167C32.0107 19.9349 30.2008 18.1251 27.9688 18.125ZM6.69434 8.3877C6.47673 8.45276 6.26325 8.52835 6.05469 8.61426L5.91211 8.67285L5.79395 8.77148C4.3342 9.9902 3.21727 11.6072 2.60547 13.4668C2.36985 14.183 2.24466 14.9617 2.15723 16.001L2.0127 17.7129L3.57227 16.9922C3.94818 16.8186 4.39339 16.6869 4.9209 16.6191C7.2021 16.4617 8.99934 17.3306 11.0996 18.3711C13.082 19.3532 15.3214 20.4775 18.2148 20.4775C21.1084 20.4775 23.3476 19.3532 25.3301 18.3711C27.4313 17.3302 29.2292 16.4609 31.5117 16.6191C32.0604 16.6899 32.5198 16.8302 32.9053 17.0146L34.4766 17.7666L34.334 16.0312C34.302 15.6425 34.2646 15.2911 34.2188 14.9678L34.1797 14.6904L34.0029 14.4746L33.7637 14.1982C33.5156 13.9255 33.2417 13.6608 32.9688 13.3955C32.7971 13.2287 32.6199 13.0561 32.4326 12.8682C31.667 12.0996 31.122 11.2766 30.7686 10.6416C30.5927 10.3256 30.4665 10.0602 30.3857 9.87793C30.3455 9.78706 30.3167 9.71669 30.2988 9.67188C30.2901 9.65003 30.2838 9.6343 30.2803 9.625C30.2789 9.62142 30.2769 9.61871 30.2764 9.61719H30.2773V9.61621L30.2764 9.61523L29.998 8.84473L29.1855 8.96875C28.068 9.13951 26.6117 9.00865 24.8301 8.83984C23.593 8.72263 22.2332 8.5934 20.8633 8.58301C20.0914 8.57716 19.3491 8.57129 18.6729 8.57129C18.6048 8.57129 18.536 8.57113 18.4668 8.57031L18.1641 8.56641L17.9111 8.73047C17.4536 9.02707 17.0599 9.37111 16.7471 9.76465C16.4312 10.162 16.141 10.5546 15.8848 10.9014C15.6738 11.1869 15.4929 11.4288 15.3359 11.6289C15.225 11.2708 15.1173 10.8002 15.0381 10.2275L14.835 8.75879L13.5488 9.49805C12.3461 10.1894 11.306 10.928 10.8154 11.5449C10.4995 11.9424 10.2084 12.3358 9.95215 12.6826C9.74151 12.9677 9.5611 13.2093 9.4043 13.4092C9.37022 13.2992 9.3343 13.1775 9.30078 13.043C9.08817 12.1894 8.93187 10.9441 8.99023 9.41895L9.02832 8.41504L8.02539 8.38086L7.01465 8.34668L6.85156 8.34082L6.69434 8.3877Z" fill="#3F14AC" stroke="#482C89" stroke-width="2"/>
</svg>
